<?xml version="1.0" encoding="utf-8"?>
<!-- Generator: Adobe Illustrator 19.0.0, SVG Export Plug-In . SVG Version: 6.00 Build 0)  -->
<svg version="1.1" id="Layer_1" xmlns="http://www.w3.org/2000/svg" xmlns:xlink="http://www.w3.org/1999/xlink" x="0px" y="0px"
	 viewBox="0 0 50 50" style="enable-background:new 0 0 50 50;" xml:space="preserve">
<style type="text/css">
	.st0{fill:#ED1B4E;}
</style>
<g id="XMLID_2_">
	<path id="XMLID_6_" class="st0" d="M4.7,16.5C8,8.6,15.9,3,25,3s17,5.6,20.3,13.5h3.2C45,6.9,35.8,0,25,0S5,6.9,1.5,16.5H4.7z"/>
	<path id="XMLID_11_" class="st0" d="M45.3,33.5C42,41.4,34.1,47,25,47S8,41.4,4.7,33.5H1.5C5,43.1,14.2,50,25,50s20-6.9,23.5-16.5
		H45.3z"/>
</g>
<path class="st0" d="M37.5,33l0,0.1c0.4,2.2-0.6,4.4-3.4,4.5c-5.3,0-13,0-18.3,0c-2.8,0-3.8-2.3-3.4-4.6H37.5z M36.4,31.8H13.6
	c-1.3,0-2.3-1-2.3-2.3s1-2.3,2.3-2.3h5.1c2.7,0,3.3,2.3,4.6,2.3c1.3,0,2-2.3,4.5-2.3h8.6c1.3,0,2.3,1,2.3,2.3S37.7,31.8,36.4,31.8z
	 M31.9,26.4c-0.8,0-1.5-0.4-2.1-0.7c-1.3-0.6-1.4-0.6-2.7,0c-0.6,0.3-1.3,0.7-2.1,0.7c-0.8,0-1.5-0.4-2.1-0.7
	c-1.3-0.6-1.4-0.6-2.7,0c-0.6,0.3-1.3,0.7-2.1,0.7c-0.8,0-1.5-0.4-2.1-0.7c-1.1-0.6-1.7-0.9-3.4,0.5c-0.2,0.1-0.3,0.2-0.5,0.2
	c-0.4,0-0.9-0.4-0.9-0.9c0-0.2,0.1-0.5,0.3-0.7c2.4-1.9,3.7-1.4,5.2-0.7c0.5,0.2,1,0.5,1.3,0.5c0.4,0,0.8-0.2,1.3-0.5
	c1.8-0.9,2.4-0.9,4.2,0c0.5,0.2,1,0.5,1.3,0.5c0.4,0,0.8-0.2,1.3-0.5c1.8-0.9,2.4-0.9,4.2,0c0.5,0.2,1,0.5,1.3,0.5
	c0.4,0,0.8-0.2,1.3-0.5c1.5-0.7,2.8-1.2,5.2,0.7c0.2,0.2,0.3,0.4,0.3,0.7c0,0.5-0.4,0.9-0.9,0.9c-0.2,0-0.4-0.1-0.5-0.2
	c-1.6-1.3-2.2-1-3.3-0.5C33.3,26.1,32.6,26.4,31.9,26.4z M37.5,22.7H12.5c0-5.7,5-10.3,12.5-10.3S37.5,17,37.5,22.7z M19.9,17
	c0.3,0,0.6,0.3,0.6,0.6c0,0.3-0.3,0.6-0.6,0.6c-0.3,0-0.6-0.3-0.6-0.6C19.3,17.3,19.6,17,19.9,17z M24.4,17c0.3,0,0.6,0.3,0.6,0.6
	c0,0.3-0.3,0.6-0.6,0.6c-0.3,0-0.6-0.3-0.6-0.6C23.9,17.3,24.1,17,24.4,17z M29,17c0.3,0,0.6,0.3,0.6,0.6c0,0.3-0.3,0.6-0.6,0.6
	c-0.3,0-0.6-0.3-0.6-0.6C28.4,17.3,28.7,17,29,17z M33.6,17c0.3,0,0.6,0.3,0.6,0.6c0,0.3-0.3,0.6-0.6,0.6c-0.3,0-0.6-0.3-0.6-0.6
	C33,17.3,33.2,17,33.6,17z M21,14.7c0.3,0,0.6,0.3,0.6,0.6c0,0.3-0.3,0.6-0.6,0.6s-0.6-0.3-0.6-0.6C20.4,15,20.7,14.7,21,14.7z
	 M17.6,15.9c0.3,0,0.6,0.3,0.6,0.6c0,0.3-0.3,0.6-0.6,0.6c-0.3,0-0.6-0.3-0.6-0.6C17,16.1,17.3,15.9,17.6,15.9z M27.9,14.7
	c0.3,0,0.6,0.3,0.6,0.6c0,0.3-0.3,0.6-0.6,0.6c-0.3,0-0.6-0.3-0.6-0.6C27.3,15,27.5,14.7,27.9,14.7z M31.3,14.7
	c0.3,0,0.6,0.3,0.6,0.6c0,0.3-0.3,0.6-0.6,0.6s-0.6-0.3-0.6-0.6C30.7,15,31,14.7,31.3,14.7z M24.4,13.6c0.3,0,0.6,0.3,0.6,0.6
	s-0.3,0.6-0.6,0.6c-0.3,0-0.6-0.3-0.6-0.6S24.1,13.6,24.4,13.6z"/>
</svg>
