<?xml version="1.0" encoding="utf-8"?>
<!-- Generator: Adobe Illustrator 19.0.0, SVG Export Plug-In . SVG Version: 6.00 Build 0)  -->
<svg version="1.1" id="Layer_1" xmlns="http://www.w3.org/2000/svg" xmlns:xlink="http://www.w3.org/1999/xlink" x="0px" y="0px"
	 viewBox="0 0 50 50" style="enable-background:new 0 0 50 50;" xml:space="preserve">
<style type="text/css">
	.st0{fill:#ED1B4E;}
</style>
<g id="XMLID_2_">
	<path id="XMLID_6_" class="st0" d="M4.7,16.5C8,8.6,15.9,3,25,3s17,5.6,20.3,13.5h3.2C45,6.9,35.8,0,25,0S5,6.9,1.5,16.5H4.7z"/>
	<path id="XMLID_11_" class="st0" d="M45.3,33.5C42,41.4,34.1,47,25,47S8,41.4,4.7,33.5H1.5C5,43.1,14.2,50,25,50s20-6.9,23.5-16.5
		H45.3z"/>
</g>
<path class="st0" d="M22.7,30.8c0,0.6-0.5,1.2-1.2,1.2c-0.6,0-1.2-0.5-1.2-1.2s0.5-1.2,1.2-1.2C22.2,29.6,22.7,30.1,22.7,30.8z
	 M26.2,30.8c0,0.6-0.5,1.2-1.2,1.2s-1.2-0.5-1.2-1.2s0.5-1.2,1.2-1.2S26.2,30.1,26.2,30.8z M29.6,30.8c0,0.6-0.5,1.2-1.2,1.2
	c-0.6,0-1.2-0.5-1.2-1.2s0.5-1.2,1.2-1.2C29.1,29.6,29.6,30.1,29.6,30.8z M31.9,22.7v-4.6c0-3.8-3.1-6.9-6.9-6.9s-6.9,3.1-6.9,6.9
	v4.6h-3.5v16.1h20.7V22.7H31.9z M20.4,18.1c0-2.5,2.1-4.6,4.6-4.6s4.6,2.1,4.6,4.6v4.6h-9.2V18.1z M33.1,36.5H16.9V25h16.1V36.5z"/>
</svg>
