<?xml version="1.0" encoding="utf-8"?>
<!-- Generator: Adobe Illustrator 19.0.0, SVG Export Plug-In . SVG Version: 6.00 Build 0)  -->
<svg version="1.1" id="Layer_1" xmlns="http://www.w3.org/2000/svg" xmlns:xlink="http://www.w3.org/1999/xlink" x="0px" y="0px"
	 viewBox="-272 395.9 50 50" style="enable-background:new -272 395.9 50 50;" xml:space="preserve">
<style type="text/css">
	.st0{fill:#ED1B4E;}
</style>
<g id="XMLID_2_">
	<path id="XMLID_6_" class="st0" d="M-267.3,412.4c3.3-7.9,11.2-13.5,20.3-13.5s17,5.6,20.3,13.5h3.2c-3.5-9.6-12.7-16.5-23.5-16.5
		c-10.8,0-20,6.9-23.5,16.5H-267.3z"/>
	<path id="XMLID_11_" class="st0" d="M-226.7,429.4c-3.3,7.9-11.2,13.5-20.3,13.5s-17-5.6-20.3-13.5h-3.2
		c3.5,9.6,12.7,16.5,23.5,16.5c10.8,0,20-6.9,23.5-16.5H-226.7z"/>
</g>
<path class="st0" d="M-236.2,421.2v13.3h-27v-27h24.7l-2.6,2.7h-19.4v21.6h21.6v-7.8L-236.2,421.2z M-235,407.6l-12.7,13l-6-5.6
	l-4.2,4.2l10.1,9.8l16.9-17.2C-230.8,411.8-235,407.6-235,407.6z"/>
</svg>
