<?xml version="1.0" encoding="utf-8"?>
<!-- Generator: Adobe Illustrator 19.0.0, SVG Export Plug-In . SVG Version: 6.00 Build 0)  -->
<svg version="1.1" id="Layer_1" xmlns="http://www.w3.org/2000/svg" xmlns:xlink="http://www.w3.org/1999/xlink" x="0px" y="0px"
	 viewBox="-272 395.9 50 50" style="enable-background:new -272 395.9 50 50;" xml:space="preserve">
<style type="text/css">
	.st0{fill:#ED1B4E;}
</style>
<g id="XMLID_2_">
	<path id="XMLID_6_" class="st0" d="M-267.3,412.4c3.3-7.9,11.2-13.5,20.3-13.5s17,5.6,20.3,13.5h3.2c-3.5-9.6-12.7-16.5-23.5-16.5
		c-10.8,0-20,6.9-23.5,16.5H-267.3z"/>
	<path id="XMLID_11_" class="st0" d="M-226.7,429.4c-3.3,7.9-11.2,13.5-20.3,13.5s-17-5.6-20.3-13.5h-3.2
		c3.5,9.6,12.7,16.5,23.5,16.5c10.8,0,20-6.9,23.5-16.5H-226.7z"/>
</g>
<path class="st0" d="M-235.5,418.6v13.8h-13.8v-13.8H-235.5z M-233.3,416.3h-18.3v18.3h18.3V416.3z M-253.9,414v18.3h1.1v-17.2h17.2
	V414H-253.9z M-256.2,411.7v18.3h1.1v-17.2h17.2v-1.1H-256.2z M-258.5,409.4v18.3h1.1v-17.2h17.2v-1.1H-258.5z M-260.8,407.1v18.3
	h1.1v-17.2h17.2v-1.1H-260.8z"/>
</svg>
