<?xml version="1.0" encoding="utf-8"?>
<!-- Generator: Adobe Illustrator 19.0.0, SVG Export Plug-In . SVG Version: 6.00 Build 0)  -->
<svg version="1.1" id="Layer_1" xmlns="http://www.w3.org/2000/svg" xmlns:xlink="http://www.w3.org/1999/xlink" x="0px" y="0px"
	 viewBox="-272 395.9 50 50" style="enable-background:new -272 395.9 50 50;" xml:space="preserve">
<style type="text/css">
	.st0{fill:#ED1B4E;}
</style>
<g id="XMLID_2_">
	<path id="XMLID_6_" class="st0" d="M-267.3,412.4c3.3-7.9,11.2-13.5,20.3-13.5s17,5.6,20.3,13.5h3.2c-3.5-9.6-12.7-16.5-23.5-16.5
		c-10.8,0-20,6.9-23.5,16.5H-267.3z"/>
	<path id="XMLID_11_" class="st0" d="M-226.7,429.4c-3.3,7.9-11.2,13.5-20.3,13.5s-17-5.6-20.3-13.5h-3.2
		c3.5,9.6,12.7,16.5,23.5,16.5c10.8,0,20-6.9,23.5-16.5H-226.7z"/>
</g>
<g>
	<path class="st0" d="M-240.1,418.6V414c0-3.8-3.1-6.9-6.9-6.9c-3.6,0-6.6,2.8-6.9,6.3h2.3c0.3-2.2,2.2-4,4.5-4
		c2.5,0,4.6,2.1,4.6,4.6v4.6h-8.6h-0.6h-2.3h-3.5v16.1h20.7v-16.1H-240.1z M-255.1,432.4v-11.5h16.1v11.5H-255.1z"/>
	<path class="st0" d="M-247,425.5c-0.7,0-1.2,0.5-1.2,1.2s0.5,1.2,1.2,1.2s1.2-0.6,1.2-1.2C-245.8,426-246.3,425.5-247,425.5z"/>
	<path class="st0" d="M-250.5,425.5c-0.7,0-1.2,0.5-1.2,1.2s0.6,1.2,1.2,1.2c0.7,0,1.2-0.6,1.2-1.2
		C-249.3,426-249.8,425.5-250.5,425.5z"/>
	<path class="st0" d="M-243.6,425.5c-0.7,0-1.2,0.5-1.2,1.2s0.6,1.2,1.2,1.2c0.7,0,1.2-0.6,1.2-1.2
		C-242.4,426-242.9,425.5-243.6,425.5z"/>
</g>
</svg>
